<svg width="120" height="120" fill="none" xmlns="http://www.w3.org/2000/svg"><path d="M84.562 73.829c-2.59 4.36-5.545 8.035-9.47 10.074-8.135 4.159-14.975 7.51-14.975 7.51l-15.055-7.329c-3.987-2.039-8.823-5.814-11.737-10.255C21.082 78.593 14 89.778 14 99.69V120h91V99.69c-.04-9.771-8.418-20.996-20.438-25.861zM34.519 58.122c3.622 11.89 12.971 24.246 25.578 24.246s21.956-12.335 25.578-24.246c3.096-1.07 5.727-4.18 6.718-8.177 1.477-5.854-.89-11.305-5.403-12.456-.08-.02-.141-.04-.243-.06C83.914 22.75 73.371 13 60.077 13c-13.295 0-23.797 9.751-26.671 24.428-.081.02-.142.04-.243.04-4.492 1.131-6.86 6.602-5.403 12.457 1.073 4.018 3.643 7.127 6.759 8.197zm-.263-16.515c.121-.04.283-.04.465-.04.122 0 .243 0 .365.02l2.003.162.303-1.979c2.004-13.466 11.15-22.53 22.766-22.53 11.615 0 20.741 9.064 22.765 22.53l.303 1.979 2.004-.162c.303-.02.607-.02.81.04 2.083.526 3.176 3.937 2.326 7.309-.81 3.21-2.914 5.128-4.593 5.35l-1.397.181-.364 1.353C78.977 66.904 70.518 78.15 60.198 78.15S41.4 66.904 38.364 55.82L38 54.468l-1.397-.182c-1.66-.242-3.784-2.12-4.593-5.35-.931-3.392.141-6.804 2.246-7.329zM54.37 52.994c.87-.97 1.437-2.261 1.599-3.553a7.645 7.645 0 0 1 7.993-.142c.08.04.141.101.243.142.04 1.292.627 2.584 1.517 3.553 3.278 3.654 14.853 2.402 14.853-3.715 0-5.491-13.74-8.318-16.107-3.028-.122.282-.163.404-.284.848a9.698 9.698 0 0 0-8.357.1c-.081-.322-.142-.666-.283-.968-2.388-5.29-16.088-2.464-16.088 3.028-.02 6.137 11.595 7.389 14.914 3.735zM69 60.383c-3.338-3.331-9.105-3.029-9.146-3.008-.526-.02-5.909-.162-9.106 3.028-3.339 3.331-3.015 9.125-3.015 9.125s5.787.343 9.146-3.008c2.307-2.301 2.874-5.754 2.995-7.692.122 1.938.688 5.39 2.995 7.692 3.34 3.331 9.147 3.008 9.147 3.008s.323-5.774-3.015-9.145z" fill="#8C8F96"/></svg>